<svg width="40" height="40" viewBox="0 0 40 40" fill="none" xmlns="http://www.w3.org/2000/svg">
<g clip-path="url(#clip0)">
<path d="M37.6191 17.5H2.38101C2.30878 17.5006 2.23758 17.5225 2.17274 17.5643C2.1079 17.6061 2.0511 17.6666 2.00658 17.7412C1.96206 17.8159 1.93099 17.9028 1.91567 17.9954C1.90036 18.0881 1.90121 18.1841 1.91816 18.2763L5.73339 38.2975C5.82482 38.7188 6.10577 40 7.14292 40H32.8572C33.8982 40 34.1763 38.7175 34.2715 38.2763L38.081 18.2763C38.0985 18.1841 38.0998 18.088 38.0848 17.9951C38.0697 17.9023 38.0388 17.8151 37.9943 17.7403C37.9497 17.6655 37.8928 17.605 37.8278 17.5633C37.7628 17.5217 37.6914 17.5 37.6191 17.5ZM33.3524 37.9538C33.1791 38.75 33.0001 38.75 32.8572 38.75H7.14292C7.00101 38.75 6.82292 38.75 6.65244 37.9737L2.99149 18.75H37.0096L33.3524 37.9538Z" fill="white" fill-opacity="0.9"/>
<path d="M17.619 35C17.7453 35 17.8664 34.9342 17.9557 34.8169C18.045 34.6997 18.0952 34.5408 18.0952 34.375V23.125C18.0952 22.9592 18.045 22.8003 17.9557 22.6831C17.8664 22.5658 17.7453 22.5 17.619 22.5C17.4927 22.5 17.3716 22.5658 17.2823 22.6831C17.193 22.8003 17.1428 22.9592 17.1428 23.125V34.375C17.1428 34.5408 17.193 34.6997 17.2823 34.8169C17.3716 34.9342 17.4927 35 17.619 35Z" fill="white" fill-opacity="0.9"/>
<path d="M10.9513 35C11.0184 35.0002 11.0847 34.9818 11.1459 34.9461C11.2072 34.9103 11.262 34.8579 11.3067 34.7924C11.3515 34.727 11.3852 34.6498 11.4057 34.566C11.4262 34.4823 11.433 34.3937 11.4256 34.3063L10.4732 23.0563C10.4593 22.8915 10.3962 22.7408 10.2976 22.6371C10.199 22.5335 10.0731 22.4856 9.94752 22.5038C9.82199 22.522 9.70711 22.605 9.62817 22.7344C9.54923 22.8638 9.51268 23.029 9.52657 23.1938L10.479 34.4438C10.4918 34.5965 10.5471 34.7376 10.6343 34.8403C10.7214 34.9429 10.8343 34.9997 10.9513 35Z" fill="white" fill-opacity="0.9"/>
<path d="M23.3334 35C23.4597 35 23.5808 34.9342 23.6701 34.8169C23.7594 34.6997 23.8096 34.5408 23.8096 34.375V23.125C23.8096 22.9592 23.7594 22.8003 23.6701 22.6831C23.5808 22.5658 23.4597 22.5 23.3334 22.5C23.2071 22.5 23.086 22.5658 22.9967 22.6831C22.9073 22.8003 22.8572 22.9592 22.8572 23.125V34.375C22.8572 34.5408 22.9073 34.6997 22.9967 34.8169C23.086 34.9342 23.2071 35 23.3334 35Z" fill="white" fill-opacity="0.9"/>
<path d="M28.9942 34.9963L29.0485 35C29.1655 34.9997 29.2784 34.9429 29.3656 34.8403C29.4527 34.7376 29.508 34.5965 29.5209 34.4438L30.4732 23.1938C30.4871 23.029 30.4506 22.8638 30.3716 22.7344C30.2927 22.605 30.1778 22.522 30.0523 22.5038C29.9268 22.4856 29.8008 22.5335 29.7023 22.6371C29.6037 22.7408 29.5405 22.8915 29.5266 23.0563L28.5742 34.3063C28.5603 34.4709 28.5967 34.636 28.6754 34.7653C28.7542 34.8947 28.8688 34.9778 28.9942 34.9963Z" fill="white" fill-opacity="0.9"/>
<path d="M32.8571 14.9999C32.9483 14.9999 33.0376 14.9654 33.1144 14.9007C33.1911 14.836 33.2521 14.7436 33.29 14.6348C33.3279 14.5259 33.3412 14.405 33.3283 14.2864C33.3154 14.1679 33.2768 14.0568 33.2171 13.9662L24.1695 0.216186C24.0853 0.0993462 23.9699 0.0296303 23.8475 0.021543C23.7251 0.0134558 23.6051 0.0676199 23.5123 0.172766C23.4196 0.277913 23.3613 0.425945 23.3496 0.586065C23.3379 0.746185 23.3737 0.906063 23.4495 1.03244L32.4971 14.7824C32.5416 14.8507 32.5968 14.9055 32.6589 14.943C32.7211 14.9806 32.7887 15 32.8571 14.9999Z" fill="white" fill-opacity="0.9"/>
<path d="M16.9677 0.140837C16.8699 0.0361963 16.7444 -0.0132306 16.6189 0.00340946C16.4934 0.0200495 16.378 0.101396 16.2981 0.229587L7.72671 13.9796C7.68428 14.0426 7.65199 14.1163 7.63176 14.1961C7.61153 14.2759 7.60379 14.3603 7.60899 14.4441C7.6142 14.5279 7.63224 14.6095 7.66204 14.684C7.69185 14.7584 7.73279 14.8243 7.78243 14.8775C7.83207 14.9307 7.88939 14.9702 7.95094 14.9936C8.01248 15.017 8.077 15.0239 8.14063 15.0138C8.20425 15.0038 8.26568 14.9769 8.32122 14.935C8.37675 14.893 8.42527 14.8368 8.46385 14.7696L17.0353 1.01959C17.115 0.891239 17.1527 0.72661 17.14 0.56185C17.1273 0.397091 17.0653 0.245669 16.9677 0.140837Z" fill="white" fill-opacity="0.9"/>
<path d="M39.5237 12.5H35.7142C35.5879 12.5 35.4668 12.5658 35.3775 12.6831C35.2882 12.8003 35.238 12.9592 35.238 13.125C35.238 13.2908 35.2882 13.4497 35.3775 13.5669C35.4668 13.6842 35.5879 13.75 35.7142 13.75H39.5237C39.65 13.75 39.7712 13.6842 39.8605 13.5669C39.9498 13.4497 39.9999 13.2908 39.9999 13.125C39.9999 12.9592 39.9498 12.8003 39.8605 12.6831C39.7712 12.5658 39.65 12.5 39.5237 12.5Z" fill="white" fill-opacity="0.9"/>
<path d="M12.857 13.75H28.0951C28.2214 13.75 28.3426 13.6842 28.4319 13.5669C28.5212 13.4497 28.5713 13.2908 28.5713 13.125C28.5713 12.9592 28.5212 12.8003 28.4319 12.6831C28.3426 12.5658 28.2214 12.5 28.0951 12.5H12.857C12.7308 12.5 12.6096 12.5658 12.5203 12.6831C12.431 12.8003 12.3809 12.9592 12.3809 13.125C12.3809 13.2908 12.431 13.4497 12.5203 13.5669C12.6096 13.6842 12.7308 13.75 12.857 13.75Z" fill="white" fill-opacity="0.9"/>
<path d="M0.47619 13.75H5.2381C5.36439 13.75 5.48551 13.6842 5.57481 13.5669C5.66412 13.4497 5.71429 13.2908 5.71429 13.125C5.71429 12.9592 5.66412 12.8003 5.57481 12.6831C5.48551 12.5658 5.36439 12.5 5.2381 12.5H0.47619C0.349897 12.5 0.228776 12.5658 0.139473 12.6831C0.0501699 12.8003 0 12.9592 0 13.125C0 13.2908 0.0501699 13.4497 0.139473 13.5669C0.228776 13.6842 0.349897 13.75 0.47619 13.75Z" fill="white" fill-opacity="0.9"/>
</g>
<defs>
<clipPath id="clip0">
<rect width="40" height="40" fill="white"/>
</clipPath>
</defs>
</svg>
