<svg width="45" height="45" viewBox="0 0 45 45" fill="none" xmlns="http://www.w3.org/2000/svg">
<g clip-path="url(#clip0)">
<path d="M42.3214 19.6875H2.67858C2.59732 19.6881 2.51722 19.7129 2.44427 19.7599C2.37133 19.8069 2.30742 19.8749 2.25734 19.9589C2.20726 20.0429 2.1723 20.1406 2.15507 20.2449C2.13784 20.3491 2.1388 20.4571 2.15786 20.5608L6.45001 43.0847C6.55286 43.5586 6.86894 45 8.03572 45H36.9643C38.1354 45 38.4482 43.5572 38.5554 43.0608L42.8411 20.5608C42.8608 20.4572 42.8622 20.349 42.8453 20.2445C42.8284 20.1401 42.7936 20.042 42.7435 19.9578C42.6934 19.8737 42.6294 19.8056 42.5562 19.7587C42.4831 19.7119 42.4028 19.6875 42.3214 19.6875ZM37.5214 42.698C37.3264 43.5938 37.125 43.5938 36.9643 43.5938H8.03572C7.87608 43.5938 7.67572 43.5938 7.48394 42.7205L3.36536 21.0938H41.6357L37.5214 42.698Z" fill="black"/>
<path d="M19.8214 39.375C19.9635 39.375 20.0998 39.3009 20.2002 39.1691C20.3007 39.0372 20.3571 38.8584 20.3571 38.6719V26.0156C20.3571 25.8291 20.3007 25.6503 20.2002 25.5184C20.0998 25.3866 19.9635 25.3125 19.8214 25.3125C19.6793 25.3125 19.5431 25.3866 19.4426 25.5184C19.3421 25.6503 19.2857 25.8291 19.2857 26.0156V38.6719C19.2857 38.8584 19.3421 39.0372 19.4426 39.1691C19.5431 39.3009 19.6793 39.375 19.8214 39.375Z" fill="black"/>
<path d="M12.3203 39.375C12.3958 39.3753 12.4704 39.3546 12.5393 39.3143C12.6082 39.2741 12.6698 39.2152 12.7202 39.1415C12.7705 39.0678 12.8085 38.981 12.8315 38.8868C12.8546 38.7925 12.8622 38.693 12.8539 38.5946L11.7825 25.9383C11.7669 25.753 11.6958 25.5833 11.5849 25.4668C11.4739 25.3502 11.3323 25.2963 11.1911 25.3168C11.0498 25.3373 10.9206 25.4306 10.8318 25.5762C10.743 25.7217 10.7019 25.9077 10.7175 26.093L11.7889 38.7493C11.8034 38.9211 11.8656 39.0799 11.9636 39.1953C12.0617 39.3107 12.1886 39.3747 12.3203 39.375Z" fill="black"/>
<path d="M26.25 39.375C26.3921 39.375 26.5283 39.3009 26.6288 39.1691C26.7293 39.0372 26.7857 38.8584 26.7857 38.6719V26.0156C26.7857 25.8291 26.7293 25.6503 26.6288 25.5184C26.5283 25.3866 26.3921 25.3125 26.25 25.3125C26.1079 25.3125 25.9717 25.3866 25.8712 25.5184C25.7707 25.6503 25.7143 25.8291 25.7143 26.0156V38.6719C25.7143 38.8584 25.7707 39.0372 25.8712 39.1691C25.9717 39.3009 26.1079 39.375 26.25 39.375Z" fill="black"/>
<path d="M32.6186 39.3708L32.6797 39.375C32.8114 39.3747 32.9384 39.3107 33.0364 39.1953C33.1344 39.0799 33.1966 38.9211 33.2111 38.7493L34.2825 26.093C34.2982 25.9077 34.257 25.7217 34.1682 25.5762C34.0794 25.4306 33.9502 25.3373 33.809 25.3168C33.6677 25.2963 33.5261 25.3502 33.4152 25.4668C33.3042 25.5833 33.2332 25.753 33.2175 25.9383L32.1461 38.5946C32.1304 38.7797 32.1714 38.9655 32.26 39.111C32.3486 39.2565 32.4776 39.35 32.6186 39.3708Z" fill="black"/>
<path d="M36.9643 16.875C37.0669 16.875 37.1674 16.8362 37.2537 16.7634C37.34 16.6905 37.4086 16.5867 37.4513 16.4642C37.4939 16.3417 37.5089 16.2057 37.4943 16.0723C37.4798 15.939 37.4364 15.8139 37.3693 15.7121L27.1907 0.243301C27.0959 0.111856 26.9662 0.0334257 26.8285 0.0243275C26.6908 0.0152293 26.5557 0.0761639 26.4514 0.194454C26.3471 0.312744 26.2815 0.47928 26.2683 0.659415C26.2552 0.83955 26.2954 1.01941 26.3807 1.16158L36.5593 16.6303C36.6093 16.7071 36.6714 16.7687 36.7413 16.811C36.8113 16.8532 36.8873 16.8751 36.9643 16.875Z" fill="black"/>
<path d="M19.0886 0.158533C18.9785 0.0408124 18.8374 -0.0147928 18.6962 0.00392719C18.555 0.0226472 18.4252 0.114162 18.3353 0.258376L8.69248 15.7271C8.64475 15.7981 8.60842 15.8809 8.58567 15.9707C8.56291 16.0605 8.5542 16.1554 8.56006 16.2497C8.56591 16.344 8.58621 16.4358 8.61974 16.5196C8.65327 16.6033 8.69933 16.6774 8.75518 16.7372C8.81102 16.7971 8.8755 16.8415 8.94474 16.8679C9.01398 16.8942 9.08657 16.902 9.15815 16.8907C9.22973 16.8793 9.29883 16.8492 9.36131 16.8019C9.42379 16.7547 9.47837 16.6914 9.52177 16.6159L19.1646 1.14713C19.2543 1.00274 19.2967 0.817528 19.2824 0.632173C19.2682 0.446819 19.1984 0.276469 19.0886 0.158533Z" fill="black"/>
<path d="M44.4642 14.0625H40.1785C40.0365 14.0625 39.9002 14.1366 39.7997 14.2684C39.6993 14.4003 39.6428 14.5791 39.6428 14.7656C39.6428 14.9521 39.6993 15.1309 39.7997 15.2628C39.9002 15.3947 40.0365 15.4688 40.1785 15.4688H44.4642C44.6063 15.4688 44.7426 15.3947 44.8431 15.2628C44.9435 15.1309 45 14.9521 45 14.7656C45 14.5791 44.9435 14.4003 44.8431 14.2684C44.7426 14.1366 44.6063 14.0625 44.4642 14.0625Z" fill="black"/>
<path d="M14.4643 15.4688H31.6072C31.7492 15.4688 31.8855 15.3947 31.986 15.2628C32.0864 15.1309 32.1429 14.9521 32.1429 14.7656C32.1429 14.5791 32.0864 14.4003 31.986 14.2684C31.8855 14.1366 31.7492 14.0625 31.6072 14.0625H14.4643C14.3222 14.0625 14.186 14.1366 14.0855 14.2684C13.985 14.4003 13.9286 14.5791 13.9286 14.7656C13.9286 14.9521 13.985 15.1309 14.0855 15.2628C14.186 15.3947 14.3222 15.4688 14.4643 15.4688Z" fill="black"/>
<path d="M0.535714 15.4688H5.89286C6.03494 15.4688 6.1712 15.3947 6.27166 15.2628C6.37213 15.1309 6.42857 14.9521 6.42857 14.7656C6.42857 14.5791 6.37213 14.4003 6.27166 14.2684C6.1712 14.1366 6.03494 14.0625 5.89286 14.0625H0.535714C0.393634 14.0625 0.257373 14.1366 0.156907 14.2684C0.0564412 14.4003 0 14.5791 0 14.7656C0 14.9521 0.0564412 15.1309 0.156907 15.2628C0.257373 15.3947 0.393634 15.4688 0.535714 15.4688Z" fill="black"/>
</g>
<defs>
<clipPath id="clip0">
<rect width="45" height="45" fill="white"/>
</clipPath>
</defs>
</svg>
