<svg width="60" height="60" viewBox="0 0 60 60" fill="none" xmlns="http://www.w3.org/2000/svg">
<path d="M38.9875 10.5117H21.0125C15.2125 10.5117 10.5117 15.2134 10.5117 21.0126V38.9876C10.5117 44.7876 15.2133 49.4884 21.0133 49.4884H38.9867C44.7867 49.4884 49.4883 44.7867 49.4883 38.9867V21.0126C49.4883 15.2126 44.7867 10.5117 38.9867 10.5117H38.9875Z" fill="white"/>
<path d="M38.9875 10.5117H21.0125C15.2125 10.5117 10.5117 15.2134 10.5117 21.0126V38.9876C10.5117 44.7876 15.2133 49.4884 21.0133 49.4884H38.9867C44.7867 49.4884 49.4883 44.7867 49.4883 38.9867V21.0126C49.4883 15.2126 44.7867 10.5117 38.9867 10.5117H38.9875Z" stroke="black" stroke-width="1.11111" stroke-miterlimit="10"/>
<path d="M30 39.408C35.1961 39.408 39.4083 35.1957 39.4083 29.9996C39.4083 24.8036 35.1961 20.5913 30 20.5913C24.8039 20.5913 20.5917 24.8036 20.5917 29.9996C20.5917 35.1957 24.8039 39.408 30 39.408Z" stroke="black" stroke-width="1.11111" stroke-miterlimit="10"/>
<path d="M41.4242 20.5917C42.5375 20.5917 43.44 19.6892 43.44 18.5759C43.44 17.4626 42.5375 16.5601 41.4242 16.5601C40.3108 16.5601 39.4083 17.4626 39.4083 18.5759C39.4083 19.6892 40.3108 20.5917 41.4242 20.5917Z" fill="black"/>
</svg>
