<svg width="30" height="30" viewBox="0 0 30 30" fill="none" xmlns="http://www.w3.org/2000/svg">
<path d="M18.7121 1.66541C18.755 1.50502 18.8598 1.36824 19.0035 1.28514C19.1473 1.20205 19.3181 1.17945 19.4785 1.22232C21.7075 1.82169 23.7397 2.99625 25.3718 4.62831C27.0039 6.26038 28.1785 8.29266 28.7778 10.5216C28.8002 10.6013 28.8065 10.6848 28.7964 10.767C28.7863 10.8493 28.76 10.9287 28.719 11.0007C28.6779 11.0727 28.623 11.1358 28.5574 11.1864C28.4918 11.237 28.4168 11.2741 28.3367 11.2955C28.2567 11.3169 28.1732 11.3222 28.0911 11.3111C28.009 11.3 27.9299 11.2727 27.8584 11.2308C27.7869 11.1888 27.7244 11.1332 27.6746 11.0669C27.6249 11.0007 27.5887 10.9252 27.5683 10.8449C27.026 8.82841 25.9634 6.98979 24.4869 5.51325C23.0103 4.03671 21.1717 2.9741 19.1552 2.43187C18.9948 2.38898 18.858 2.28414 18.7749 2.1404C18.6918 1.99667 18.6692 1.82581 18.7121 1.66541ZM17.8586 7.27072C19.026 7.58468 20.0905 8.1999 20.9453 9.05474C21.8001 9.90959 22.4153 10.9741 22.7292 12.1415C22.7499 12.2216 22.7862 12.2968 22.836 12.3628C22.8859 12.4288 22.9483 12.4842 23.0197 12.526C23.0911 12.5677 23.1701 12.5948 23.2521 12.6058C23.3341 12.6169 23.4174 12.6115 23.4973 12.5902C23.5772 12.5688 23.6521 12.5318 23.7176 12.4813C23.7831 12.4309 23.838 12.3679 23.879 12.2961C23.9201 12.2243 23.9465 12.1451 23.9568 12.063C23.967 11.981 23.9609 11.8977 23.9388 11.818C23.5678 10.4382 22.8406 9.18004 21.8303 8.16969C20.8199 7.15934 19.5618 6.43222 18.182 6.06117C18.1022 6.03879 18.0187 6.03246 17.9365 6.04257C17.8542 6.05267 17.7748 6.07901 17.7028 6.12004C17.6308 6.16107 17.5677 6.21598 17.5171 6.28159C17.4665 6.34721 17.4294 6.42221 17.408 6.50227C17.3866 6.58232 17.3813 6.66582 17.3924 6.74794C17.4035 6.83005 17.4308 6.90914 17.4728 6.98062C17.5147 7.05211 17.5704 7.11456 17.6366 7.16436C17.7028 7.21415 17.7783 7.25031 17.8586 7.27072ZM29.9868 22.8906C29.7342 24.8542 28.7754 26.6587 27.2895 27.9671C25.8036 29.2754 23.8922 29.998 21.9124 30C9.82989 30 0 20.1702 0 8.08774C0.00194743 6.108 0.724529 4.19668 2.03277 2.71078C3.34102 1.22489 5.14544 0.266055 7.109 0.0133847C7.51239 -0.0349878 7.9206 0.0485231 8.27259 0.251429C8.62457 0.454334 8.90141 0.765731 9.06171 1.13905L12.2063 8.4759C12.3286 8.76055 12.3785 9.07108 12.3515 9.37972C12.3244 9.68836 12.2213 9.98549 12.0513 10.2445L9.44752 14.2232C9.38858 14.3114 9.35342 14.4134 9.34547 14.5193C9.33752 14.6251 9.35704 14.7312 9.40213 14.8273C10.6412 17.3551 12.6908 19.3954 15.2243 20.623C15.3209 20.6678 15.4275 20.6867 15.5337 20.678C15.6398 20.6693 15.7419 20.6332 15.83 20.5732L19.7485 17.9602C20.0083 17.7863 20.3074 17.6803 20.6186 17.6517C20.9298 17.6231 21.2433 17.6729 21.5303 17.7964L28.8613 20.9383C29.2345 21.0987 29.5458 21.3755 29.7486 21.7274C29.9515 22.0793 30.035 22.4874 29.9866 22.8907L29.9868 22.8906ZM28.3678 22.089L21.0371 18.9473C20.9414 18.9061 20.8369 18.8895 20.7331 18.8991C20.6294 18.9086 20.5296 18.9439 20.443 19.0018L16.5246 21.6148C16.2551 21.7952 15.9435 21.9026 15.6201 21.9263C15.2967 21.9501 14.9727 21.8895 14.6797 21.7505C11.8937 20.4003 9.63972 18.1564 8.27693 15.3765V15.3767C8.13709 15.0855 8.07493 14.7631 8.09649 14.4407C8.11804 14.1184 8.22258 13.8072 8.39995 13.5372L11.0038 9.55899C11.0604 9.47261 11.0948 9.37353 11.1038 9.27061C11.1128 9.1677 11.0962 9.06416 11.0554 8.96924L7.91084 1.63239C7.86322 1.52019 7.78389 1.42434 7.68257 1.35658C7.58126 1.28883 7.46237 1.25212 7.34049 1.25096C7.31563 1.25093 7.2908 1.2525 7.26615 1.25565C5.60483 1.46952 4.07819 2.28089 2.97143 3.53819C1.86468 4.79549 1.25352 6.41272 1.25214 8.08774C1.25214 19.4798 10.5203 28.7479 21.9124 28.7479C23.5874 28.7464 25.2046 28.1352 26.4619 27.0285C27.7192 25.9217 28.5305 24.3951 28.7443 22.7337C28.7596 22.6 28.7312 22.465 28.6633 22.3488C28.5954 22.2326 28.4917 22.1416 28.3678 22.0892V22.089Z" fill="white" fill-opacity="0.9"/>
</svg>
