<svg width="35" height="37" viewBox="0 0 35 37" fill="none" xmlns="http://www.w3.org/2000/svg">
<path d="M21.8308 2.37162C21.8808 2.17925 22.0031 2.01519 22.1708 1.91552C22.3385 1.81586 22.5378 1.78876 22.725 1.84017C25.3254 2.55906 27.6964 3.9678 29.6005 5.92527C31.5046 7.88275 32.8749 10.3202 33.5741 12.9935C33.6003 13.0892 33.6076 13.1893 33.5958 13.2879C33.5841 13.3866 33.5533 13.4818 33.5055 13.5682C33.4576 13.6545 33.3935 13.7303 33.317 13.791C33.2404 13.8517 33.1529 13.8961 33.0595 13.9218C32.9661 13.9475 32.8687 13.9538 32.7729 13.9405C32.6771 13.9272 32.5848 13.8944 32.5014 13.8441C32.418 13.7939 32.3452 13.7271 32.2871 13.6476C32.229 13.5682 32.1868 13.4777 32.163 13.3814C31.5304 10.9628 30.2907 8.75759 28.568 6.98665C26.8454 5.21571 24.7003 3.94123 22.3477 3.29089C22.1606 3.23945 22.001 3.1137 21.9041 2.94131C21.8071 2.76892 21.7807 2.56399 21.8308 2.37162ZM20.835 9.09454C22.197 9.47109 23.4389 10.209 24.4362 11.2343C25.4335 12.2596 26.1512 13.5363 26.5174 14.9365C26.5415 15.0325 26.5839 15.1228 26.642 15.2019C26.7002 15.281 26.773 15.3475 26.8564 15.3976C26.9397 15.4476 27.0318 15.4802 27.1274 15.4934C27.2231 15.5066 27.3203 15.5002 27.4135 15.4746C27.5067 15.449 27.5941 15.4046 27.6705 15.3441C27.747 15.2835 27.811 15.208 27.8589 15.1219C27.9068 15.0358 27.9376 14.9408 27.9496 14.8424C27.9615 14.7439 27.9544 14.644 27.9286 14.5485C27.4957 12.8935 26.6474 11.3845 25.4687 10.1727C24.2899 8.96095 22.8221 8.08885 21.2123 7.64382C21.1192 7.61697 21.0219 7.60939 20.9259 7.62151C20.83 7.63363 20.7373 7.66521 20.6533 7.71442C20.5693 7.76363 20.4957 7.8295 20.4366 7.90819C20.3776 7.98689 20.3343 8.07685 20.3093 8.17286C20.2844 8.26888 20.2782 8.36903 20.2912 8.46752C20.3041 8.566 20.336 8.66086 20.3849 8.7466C20.4338 8.83233 20.4988 8.90724 20.576 8.96696C20.6533 9.02669 20.7413 9.07005 20.835 9.09454ZM34.9846 27.8287C34.6899 30.1839 33.5713 32.3482 31.8378 33.9174C30.1042 35.4866 27.8742 36.3533 25.5644 36.3557C11.4682 36.3557 0 24.5659 0 10.0745C0.002272 7.69999 0.845284 5.40757 2.37157 3.62542C3.89785 1.84326 6.00302 0.693248 8.29384 0.390199C8.76446 0.332182 9.2407 0.432343 9.65135 0.675705C10.062 0.919067 10.385 1.29255 10.572 1.7403L14.2407 10.54C14.3834 10.8814 14.4416 11.2539 14.41 11.624C14.3785 11.9942 14.2582 12.3506 14.0599 12.6613L11.0221 17.4332C10.9533 17.5391 10.9123 17.6614 10.9031 17.7884C10.8938 17.9153 10.9165 18.0426 10.9692 18.1578C12.4148 21.1896 14.806 23.6367 17.7616 25.109C17.8744 25.1627 17.9988 25.1855 18.1226 25.175C18.2465 25.1645 18.3656 25.1212 18.4683 25.0493L23.04 21.9153C23.343 21.7068 23.692 21.5796 24.055 21.5453C24.4181 21.511 24.7838 21.5707 25.1187 21.7189L33.6715 25.4873C34.1069 25.6795 34.4701 26.0115 34.7067 26.4336C34.9434 26.8557 35.0408 27.3452 34.9844 27.8289L34.9846 27.8287ZM33.0957 26.8674L24.5433 23.0992C24.4317 23.0499 24.3097 23.03 24.1887 23.0414C24.0676 23.0528 23.9512 23.0951 23.8502 23.1646L19.2787 26.2986C18.9643 26.515 18.6007 26.6437 18.2234 26.6723C17.8461 26.7008 17.4681 26.6281 17.1264 26.4614C13.876 24.8419 11.2463 22.1507 9.65642 18.8165V18.8167C9.49327 18.4674 9.42075 18.0807 9.4459 17.6942C9.47105 17.3076 9.59301 16.9342 9.79995 16.6104L12.8377 11.8391C12.9038 11.7354 12.9439 11.6166 12.9544 11.4932C12.965 11.3697 12.9456 11.2456 12.898 11.1317L9.22931 2.33201C9.17375 2.19744 9.0812 2.08247 8.963 2.00121C8.8448 1.91994 8.7061 1.87592 8.56391 1.87452C8.53491 1.87449 8.50594 1.87637 8.47717 1.88016C6.53896 2.13666 4.75788 3.10981 3.46667 4.6178C2.17546 6.12579 1.46244 8.06546 1.46083 10.0745C1.46083 23.7379 12.2737 34.8539 25.5644 34.8539C27.5186 34.8522 29.4054 34.1191 30.8722 32.7917C32.339 31.4642 33.2856 29.6332 33.5351 27.6406C33.5529 27.4803 33.5197 27.3183 33.4405 27.179C33.3613 27.0396 33.2404 26.9304 33.0957 26.8676V26.8674Z" fill="black"/>
</svg>
