<svg width="50" height="50" viewBox="0 0 50 50" fill="none" xmlns="http://www.w3.org/2000/svg">
<g clip-path="url(#clip0)">
<path d="M25 -0.0532227C11.1859 -0.0532227 -0.0546875 11.1843 -0.0546875 24.9999C-0.0546875 38.8155 11.1859 50.053 25 50.053C38.8141 50.053 50.0547 38.8155 50.0547 24.9999C50.0547 11.1843 38.8141 -0.0532227 25 -0.0532227ZM25 48.3843C12.1063 48.3843 1.61719 37.8937 1.61719 24.9999C1.61719 12.1062 12.1063 1.61553 25 1.61553C37.8938 1.61553 48.3828 12.1062 48.3828 24.9999C48.3828 37.8937 37.8938 48.3843 25 48.3843Z" fill="black"/>
<path d="M30.4687 10.9373H26.3C20.9906 10.8842 20.3125 14.1701 20.3125 17.7264V20.3123H17.9687C17.8628 20.2982 17.755 20.3086 17.6538 20.3429C17.5526 20.3771 17.4606 20.4343 17.385 20.5099C17.3095 20.5854 17.2523 20.6774 17.2181 20.7786C17.1838 20.8799 17.1733 20.9876 17.1875 21.0936V25.7811C17.1733 25.887 17.1838 25.9948 17.2181 26.096C17.2523 26.1972 17.3095 26.2892 17.385 26.3648C17.4606 26.4404 17.5526 26.4975 17.6538 26.5318C17.755 26.566 17.8628 26.5765 17.9687 26.5623H20.3125V38.2811C20.2995 38.3872 20.3109 38.4949 20.3459 38.5959C20.3808 38.697 20.4384 38.7887 20.5142 38.8641C20.5901 38.9394 20.6821 38.9965 20.7834 39.0308C20.8846 39.0652 20.9924 39.076 21.0984 39.0623H25.8719C26.3328 39.1154 26.7062 38.742 26.5594 38.2811L26.5625 26.5623H30.4687C30.5747 26.5765 30.6824 26.566 30.7837 26.5318C30.8849 26.4975 30.9769 26.4404 31.0525 26.3648C31.128 26.2892 31.1852 26.1972 31.2194 26.096C31.2537 25.9948 31.2641 25.887 31.25 25.7811V21.0936C31.2641 20.9876 31.2537 20.8799 31.2194 20.7786C31.1852 20.6774 31.128 20.5854 31.0525 20.5099C30.9769 20.4343 30.8849 20.3771 30.7837 20.3429C30.6824 20.3086 30.5747 20.2982 30.4687 20.3123H26.5578L26.5625 17.9686C26.7141 16.9701 26.7141 17.1326 27.6406 17.1873H30.4359C30.6531 17.1389 30.8844 17.1654 31.0469 17.0076C31.2094 16.8498 31.3031 16.6342 31.2484 16.4061V11.7186C31.2629 11.6127 31.2526 11.505 31.2186 11.4037C31.1845 11.3025 31.1275 11.2105 31.0521 11.1348C30.9766 11.0592 30.8847 11.0021 30.7835 10.9678C30.6824 10.9335 30.5746 10.9231 30.4687 10.9373ZM29.6328 15.5373L27.6734 15.4623C25.2469 15.4623 25.0437 16.7795 25.0437 18.1279L25.0375 21.0904C25.0373 21.2001 25.0587 21.3088 25.1006 21.4102C25.1424 21.5116 25.2038 21.6038 25.2813 21.6814C25.3588 21.7591 25.4509 21.8207 25.5522 21.8627C25.6535 21.9047 25.7622 21.9264 25.8719 21.9264H29.6875V24.9451H25.875C25.6536 24.9451 25.4412 25.033 25.2845 25.1894C25.1277 25.3458 25.0395 25.5581 25.0391 25.7795L25.0375 37.4998H21.875V25.7811C21.875 25.3201 21.5609 24.9467 21.0984 24.9467H18.75V21.9279H21.0984C21.2081 21.9281 21.3167 21.9067 21.418 21.8648C21.5193 21.823 21.6115 21.7616 21.6891 21.6842C21.8453 21.5264 21.8734 21.3139 21.8734 21.092V17.7248C21.8734 14.2217 22.5812 12.5529 26.2984 12.5529H29.6312V15.5373H29.6328Z" fill="black"/>
</g>
<defs>
<clipPath id="clip0">
<rect width="50" height="50" fill="white"/>
</clipPath>
</defs>
</svg>
