<svg width="60" height="60" viewBox="0 0 60 60" fill="none" xmlns="http://www.w3.org/2000/svg">
<path d="M38.0201 29.22L26.7701 21.72C26.6289 21.6258 26.4648 21.5718 26.2953 21.5636C26.1258 21.5554 25.9573 21.5933 25.8077 21.6734C25.658 21.7535 25.533 21.8726 25.4458 22.0182C25.3586 22.1638 25.3125 22.3303 25.3125 22.5V37.5C25.3125 37.6697 25.3586 37.8362 25.4458 37.9817C25.533 38.1273 25.658 38.2465 25.8077 38.3265C25.9573 38.4066 26.1258 38.4446 26.2953 38.4364C26.4648 38.4282 26.6289 38.3741 26.7701 38.28L38.0201 30.78C38.1485 30.6944 38.2538 30.5784 38.3266 30.4423C38.3994 30.3062 38.4375 30.1543 38.4375 30C38.4375 29.8457 38.3994 29.6937 38.3266 29.5576C38.2538 29.4216 38.1485 29.3056 38.0201 29.22ZM27.1875 35.7483V24.2517L35.8102 30L27.1875 35.7483ZM54.0141 16.5951C53.8294 15.8769 53.4765 15.2128 52.9847 14.6578C52.4928 14.1028 51.876 13.6727 51.1852 13.4029C43.2652 10.3591 30.5325 10.4055 30.0059 10.4081C29.4682 10.4051 16.7351 10.3589 8.81461 13.4027C8.12386 13.6725 7.50714 14.1026 7.01536 14.6576C6.52357 15.2127 6.17081 15.8767 5.98617 16.5949C5.39367 18.8693 4.6875 23.0414 4.6875 30C4.6875 36.9588 5.39367 41.1307 5.98594 43.4051C6.17062 44.1233 6.52346 44.7874 7.01533 45.3424C7.5072 45.8974 8.124 46.3275 8.81484 46.5972C16.7348 49.6408 29.4675 49.5949 29.9941 49.5918C30.0204 49.5918 30.0762 49.5923 30.1598 49.5923C31.773 49.5923 43.6545 49.4913 51.1854 46.5972C51.8761 46.3275 52.4929 45.8973 52.9846 45.3423C53.4764 44.7873 53.8292 44.1233 54.0138 43.4051C54.6063 41.1307 55.3125 36.9586 55.3125 30C55.3125 23.0412 54.6063 18.8693 54.0141 16.5949V16.5951ZM52.1995 42.9326C52.0903 43.3625 51.8803 43.7603 51.5871 44.0932C51.2938 44.4261 50.9255 44.6844 50.5127 44.8469C42.9251 47.7628 30.1348 47.719 29.9941 47.7168C29.8652 47.7168 17.0749 47.7628 9.48727 44.8469C9.07446 44.6844 8.70623 44.426 8.41295 44.0931C8.11966 43.7602 7.90973 43.3623 7.80047 42.9323C7.23563 40.7641 6.5625 36.7603 6.5625 30C6.5625 23.2399 7.23586 19.2358 7.80047 17.0674C7.90973 16.6374 8.11966 16.2396 8.41295 15.9067C8.70624 15.5739 9.07447 15.3155 9.48727 15.153C17.0752 12.2372 29.8657 12.2836 30.0059 12.2831C30.1338 12.2815 42.9251 12.2369 50.5127 15.153C50.9255 15.3156 51.2938 15.574 51.5871 15.9069C51.8803 16.2398 52.0903 16.6376 52.1995 17.0676C52.7644 19.2358 53.4375 23.2397 53.4375 30C53.4375 36.7601 52.7641 40.7641 52.1995 42.9326Z" fill="black"/>
</svg>
